<svg width="9" height="6" viewBox="0 0 9 6" fill="none" xmlns="http://www.w3.org/2000/svg">
<path fill-rule="evenodd" clip-rule="evenodd" d="M0.796943 0.60013C1.05518 0.403241 1.42413 0.452973 1.62102 0.71121L4.55495 4.55932C4.628 4.60767 4.73464 4.60768 4.80769 4.55932L7.74162 0.71121C7.93851 0.452973 8.30746 0.403241 8.56569 0.60013C8.82393 0.797018 8.87366 1.16597 8.67678 1.42421L5.73272 5.28559C5.69837 5.33065 5.64637 5.39301 5.57436 5.45268C5.06126 5.87783 4.30137 5.87783 3.78828 5.45268C3.71627 5.39301 3.66427 5.33065 3.62992 5.28559L0.685862 1.42421C0.488974 1.16597 0.538706 0.797018 0.796943 0.60013Z" fill="white"/>
</svg>
