<svg width="10" height="6" viewBox="0 0 10 6" fill="none" xmlns="http://www.w3.org/2000/svg">
<path fill-rule="evenodd" clip-rule="evenodd" d="M8.8012 5.31595C8.54297 5.51284 8.17401 5.4631 7.97713 5.20487L5.04319 1.35676C4.97015 1.3084 4.8635 1.3084 4.79046 1.35676L1.85653 5.20487C1.65964 5.4631 1.29069 5.51284 1.03245 5.31595C0.774213 5.11906 0.72448 4.75011 0.921368 4.49187L3.86542 0.630484C3.89978 0.585424 3.95177 0.523062 4.02378 0.463393C4.53688 0.0382438 5.29677 0.0382438 5.80987 0.463393C5.88188 0.523062 5.93387 0.585424 5.96823 0.630484L8.91228 4.49187C9.10917 4.75011 9.05944 5.11906 8.8012 5.31595Z" fill="#3C4242"/>
</svg>
