<svg width="14" height="17" viewBox="0 0 14 17" fill="none" xmlns="http://www.w3.org/2000/svg">
<path d="M7.0002 0.75415C8.796 0.754326 10.2502 2.21226 10.2502 4.00806V4.09204H11.9992L12.1428 4.10571C12.4682 4.16873 12.7209 4.4425 12.7473 4.78442L13.5803 15.634C13.5961 15.8421 13.5248 16.0473 13.383 16.2004C13.2412 16.3535 13.0419 16.4416 12.8332 16.4417H1.16621C0.957452 16.4416 0.758272 16.3536 0.616407 16.2004C0.474622 16.0473 0.402322 15.8421 0.418165 15.634L1.25215 4.78442L1.27656 4.64282C1.3643 4.3234 1.65651 4.09233 1.99922 4.09204H3.7502V4.00806C3.7502 2.21215 5.20424 0.75415 7.0002 0.75415ZM1.97578 14.9417H12.0236L11.3049 5.59204H10.2502V6.51099C10.2499 6.92487 9.9141 7.26081 9.5002 7.26099C9.08614 7.26099 8.75046 6.92498 8.7502 6.51099V5.59204H5.2502V6.51099C5.24994 6.92487 4.9141 7.26081 4.5002 7.26099C4.08614 7.26099 3.75046 6.92498 3.7502 6.51099V5.59204H2.69453L1.97578 14.9417ZM7.0002 2.25415C6.03473 2.25415 5.2502 3.03851 5.2502 4.00806V4.09204H8.7502V4.00806C8.7502 3.03862 7.96552 2.25433 7.0002 2.25415Z" fill="white"/>
</svg>
